<?xml version="1.0" standalone="no"?>
<!DOCTYPE svg PUBLIC "-//W3C//DTD SVG 20010904//EN"
 "http://www.w3.org/TR/2001/REC-SVG-20010904/DTD/svg10.dtd">
<svg version="1.0" xmlns="http://www.w3.org/2000/svg"
 width="192.000000pt" height="262.000000pt" viewBox="0 0 192.000000 262.000000"
 preserveAspectRatio="xMidYMid meet">

<g transform="translate(0.000000,262.000000) scale(0.100000,-0.100000)"
fill="#000000" stroke="none">
<path d="M1533 1828 c7 -47 -11 -172 -35 -235 -28 -75 -108 -192 -172 -251
-30 -27 -93 -73 -140 -103 -83 -53 -100 -69 -72 -69 8 0 36 -19 62 -43 45 -41
48 -46 52 -105 4 -53 1 -67 -22 -106 -15 -25 -45 -56 -71 -72 -25 -16 -45 -32
-45 -36 0 -13 112 -49 184 -58 166 -24 334 32 458 150 l63 59 -41 1 c-33 0
-43 -5 -54 -25 -17 -32 -74 -59 -108 -50 -36 9 -80 52 -87 85 -13 61 44 130
107 130 32 0 85 -34 93 -59 5 -18 14 -21 69 -21 62 0 62 0 80 38 10 20 24 54
32 75 l13 37 -194 0 c-184 0 -194 -1 -200 -20 -10 -33 -54 -60 -97 -60 -55 0
-108 51 -108 105 0 54 53 105 108 105 43 0 87 -27 97 -60 6 -19 16 -20 204
-20 l198 0 6 48 c6 55 -4 157 -23 220 l-13 42 -50 0 c-43 0 -55 -5 -97 -40
-38 -32 -46 -44 -43 -65 20 -102 -104 -169 -178 -96 -50 51 -36 137 28 170 27
14 68 14 93 1 15 -8 29 -1 73 35 47 39 60 45 101 45 l47 0 -23 41 c-46 83
-156 177 -254 219 l-46 20 5 -32z"/>
<path d="M1547 1442 c-22 -24 -21 -55 1 -75 24 -22 55 -21 75 1 22 25 21 48
-3 72 -25 25 -52 26 -73 2z"/>
<path d="M1376 1237 c-38 -28 -13 -97 35 -97 43 0 65 63 33 94 -19 19 -44 20
-68 3z"/>
<path d="M1582 1034 c-24 -17 -30 -62 -10 -82 7 -7 24 -12 38 -12 33 0 50 17
50 51 0 24 -30 59 -50 59 -3 0 -16 -7 -28 -16z"/>
<path d="M661 512 c-51 -25 -73 -62 -77 -124 l-3 -53 9 54 c8 54 34 101 61
109 8 3 5 -6 -9 -20 -22 -24 -43 -78 -41 -108 0 -8 7 7 14 33 16 58 38 84 79
96 23 7 26 10 11 12 -11 1 0 5 25 9 l45 7 -40 1 c-22 1 -55 -6 -74 -16z"/>
<path d="M200 375 c0 -122 2 -145 15 -145 13 0 15 20 15 124 0 105 2 124 15
122 8 -1 22 -11 31 -22 19 -24 7 1 -18 39 -11 15 -28 27 -39 27 -18 0 -19 -8
-19 -145z m48 117 c2 -7 -2 -11 -10 -10 -10 2 -14 -25 -18 -122 l-6 -125 -2
138 c-2 125 0 138 15 135 9 -2 18 -9 21 -16z"/>
<path d="M392 403 l2 -118 6 115 6 115 2 -138 c2 -107 -1 -138 -10 -135 -7 3
-13 13 -14 24 -1 20 -31 84 -40 84 -2 0 0 -9 6 -21 7 -11 10 -23 7 -25 -2 -3
-23 27 -47 66 -23 38 -44 70 -46 70 -6 0 10 -28 71 -128 76 -123 85 -117 85
63 0 122 -2 145 -15 145 -13 0 -15 -19 -13 -117z m-18 -119 c3 -8 2 -12 -4 -9
-6 3 -10 10 -10 16 0 14 7 11 14 -7z"/>
<path d="M490 375 c0 -122 2 -145 15 -145 13 0 15 23 15 145 0 122 -2 145 -15
145 -13 0 -15 -23 -15 -145z m17 -67 c-1 -40 -3 -10 -3 67 0 77 1 110 3 73 2
-37 2 -100 0 -140z"/>
<path d="M760 510 l-25 -8 27 -1 c15 -1 30 4 33 9 7 11 0 11 -35 0z"/>
<path d="M850 375 l0 -145 80 0 c64 0 80 3 80 15 0 12 -13 15 -62 13 l-63 -1
60 -7 60 -7 -72 -1 -73 -2 0 133 0 134 75 -5 c52 -3 75 -1 75 7 0 7 -27 11
-80 11 l-80 0 0 -145z"/>
<path d="M1040 509 c0 -8 19 -10 63 -6 l62 6 -3 -134 c-3 -116 -5 -134 -20
-138 -12 -3 -11 -5 6 -6 22 -1 22 0 22 134 l0 135 45 0 c25 0 45 5 45 10 0 6
-43 10 -110 10 -76 0 -110 -4 -110 -11z"/>
<path d="M1300 375 l0 -145 80 0 c64 0 80 3 80 15 0 12 -14 15 -65 15 l-65 0
0 55 0 55 55 0 c42 0 55 3 55 15 0 12 -13 15 -55 15 l-55 0 0 50 0 50 60 0
c33 0 60 4 60 10 0 6 -32 10 -75 10 l-75 0 0 -145z m25 78 l0 -58 55 -4 55 -5
-55 -5 -55 -6 0 -60 0 -60 65 -6 65 -6 -72 -1 -73 -2 0 135 c0 74 3 135 8 135
4 0 7 -26 7 -57z"/>
<path d="M1527 512 c6 -4 13 -32 16 -62 l3 -55 2 63 c2 53 0 62 -15 62 -12 0
-14 -3 -6 -8z"/>
<path d="M1649 503 c-11 -15 -11 -16 1 -5 23 20 35 14 15 -8 -10 -11 -21 -17
-26 -15 -11 8 -99 -109 -99 -131 0 -3 8 4 19 17 l18 23 52 -77 c28 -42 58 -77
66 -77 8 0 15 2 15 5 0 9 -100 155 -106 155 -2 0 18 -34 46 -75 28 -41 47 -75
41 -75 -5 0 -28 29 -51 64 -23 36 -48 70 -56 77 -14 12 -9 33 6 24 4 -3 31 22
60 55 42 49 48 60 32 60 -11 0 -26 -8 -33 -17z m-33 -71 c-16 -15 -25 -20 -21
-12 13 25 38 50 44 45 3 -3 -8 -18 -23 -33z"/>
<path d="M299 415 c5 -11 17 -29 26 -40 l16 -20 -10 20 c-5 11 -17 29 -26 40
l-16 20 10 -20z"/>
<path d="M940 391 l55 -5 -55 -6 -55 -7 58 -1 c45 -2 57 1 57 13 0 12 -12 15
-57 13 l-58 -2 55 -5z"/>
<path d="M610 337 c0 -11 15 -34 34 -53 19 -19 28 -34 21 -34 -7 0 -25 12 -40
28 -22 21 -26 23 -17 6 6 -12 27 -29 46 -38 39 -18 131 -23 106 -5 -11 8 -8 9
15 4 23 -5 27 -4 18 6 -9 9 -22 9 -58 -1 -25 -7 -48 -10 -52 -6 -3 3 2 6 13 6
13 0 7 6 -16 18 -20 10 -42 32 -52 52 -12 22 -18 28 -18 17z"/>
<path d="M1540 286 c0 -34 -4 -46 -17 -49 -14 -4 -12 -5 5 -6 20 -1 22 3 22
49 0 28 -2 50 -5 50 -3 0 -5 -20 -5 -44z"/>
<path d="M160 80 c-8 -14 -8 -26 0 -40 11 -20 44 -27 54 -11 3 4 -5 6 -18 4
-28 -6 -41 19 -26 48 6 10 8 19 6 19 -3 0 -10 -9 -16 -20z"/>
<path d="M205 90 c3 -5 8 -10 11 -10 2 0 4 5 4 10 0 6 -5 10 -11 10 -5 0 -7
-4 -4 -10z"/>
<path d="M250 80 c-16 -31 4 -62 38 -58 23 3 27 8 27 37 0 20 -5 35 -13 37 -7
1 -8 0 -2 -3 5 -2 10 -18 10 -34 0 -24 -4 -29 -24 -29 -27 0 -39 27 -24 54 5
9 7 16 4 16 -3 0 -10 -9 -16 -20z"/>
<path d="M352 58 c1 -38 2 -39 5 -10 4 32 5 33 19 15 14 -17 14 -17 4 4 -19
40 -30 36 -28 -9z"/>
<path d="M440 85 c0 -9 11 -20 25 -25 33 -13 33 -34 -1 -27 -16 3 -22 1 -16
-5 15 -15 46 -5 50 14 2 12 -5 19 -23 24 -17 4 -24 11 -21 20 3 8 1 14 -4 14
-6 0 -10 -7 -10 -15z"/>
<path d="M521 75 c-1 -40 11 -57 40 -53 21 3 24 9 25 43 l1 40 -4 -38 c-4 -33
-8 -38 -26 -35 -16 2 -24 12 -28 38 -6 34 -6 34 -8 5z"/>
<path d="M622 63 c-2 -41 -1 -43 26 -42 22 1 23 2 5 6 -17 3 -23 13 -26 41
l-4 37 -1 -42z"/>
<path d="M698 60 c2 -22 6 -40 8 -40 2 0 4 18 4 40 0 22 -3 40 -8 40 -4 0 -6
-18 -4 -40z"/>
<path d="M763 60 c0 -25 2 -35 4 -22 2 12 2 32 0 45 -2 12 -4 2 -4 -23z"/>
<path d="M792 58 c1 -41 1 -41 5 -8 l5 35 29 -35 28 -35 -1 45 c-1 42 -1 43
-7 12 l-6 -34 -18 31 c-25 43 -37 39 -35 -11z"/>
<path d="M894 86 c-3 -8 -4 -25 -2 -38 2 -18 9 -23 33 -23 20 0 31 5 33 18 2
11 -3 17 -15 16 -10 0 -13 -3 -5 -6 21 -8 13 -23 -14 -23 -24 0 -26 3 -22 35
4 37 1 45 -8 21z"/>
<path d="M1028 79 c-3 -20 -1 -26 11 -25 9 0 16 -6 15 -14 -1 -9 7 -16 17 -16
24 0 24 1 -2 25 -13 12 -17 21 -10 26 6 3 11 12 11 18 0 7 -6 3 -12 -8 -11
-19 -11 -19 -18 0 -6 17 -7 16 -12 -6z"/>
<path d="M1160 60 c0 -52 7 -52 12 0 2 22 0 40 -4 40 -5 0 -8 -18 -8 -40z"/>
<path d="M1223 60 c0 -25 2 -35 4 -22 2 12 2 32 0 45 -2 12 -4 2 -4 -23z"/>
<path d="M1266 86 c3 -8 1 -17 -5 -20 -12 -8 8 -46 23 -46 6 0 5 5 -1 11 -7 7
-9 25 -6 40 3 18 1 29 -5 29 -6 0 -9 -6 -6 -14z"/>
<path d="M1403 60 c0 -25 2 -35 4 -22 2 12 2 32 0 45 -2 12 -4 2 -4 -23z"/>
<path d="M1442 60 c1 -45 1 -45 8 -10 4 19 8 31 9 25 2 -15 41 -62 41 -50 -1
6 -14 26 -30 45 l-29 35 1 -45z"/>
<path d="M1533 60 c0 -25 2 -35 4 -22 2 12 2 32 0 45 -2 12 -4 2 -4 -23z"/>
<path d="M1571 58 l2 -43 6 35 6 35 20 -32 c26 -44 35 -41 34 10 l-2 42 -6
-35 -6 -35 -20 33 c-26 43 -35 40 -34 -10z"/>
<path d="M1672 88 c-29 -29 -2 -72 40 -66 28 4 38 38 11 37 -10 0 -13 -3 -5
-6 21 -8 13 -23 -12 -23 -29 0 -44 33 -26 55 15 18 9 20 -8 3z"/>
<path d="M1710 96 c0 -2 7 -7 16 -10 8 -3 12 -2 9 4 -6 10 -25 14 -25 6z"/>
<path d="M1354 65 c4 -11 -1 -15 -18 -15 -13 0 -26 -7 -30 -15 -4 -12 -2 -13
14 -2 16 9 24 9 39 0 19 -12 19 -11 9 17 -5 17 -12 30 -15 30 -3 0 -3 -7 1
-15z"/>
<path d="M395 30 c3 -5 8 -10 11 -10 2 0 4 5 4 10 0 6 -5 10 -11 10 -5 0 -7
-4 -4 -10z"/>
<path d="M1020 30 c0 -5 5 -10 11 -10 5 0 7 5 4 10 -3 6 -8 10 -11 10 -2 0 -4
-4 -4 -10z"/>
</g>
</svg>
